<svg xmlns="http://www.w3.org/2000/svg" width="48" height="48" shape-rendering="crispEdges" viewBox="0 -0.5 48 48"><path stroke="#fff" d="M15 0h1M9 3h1m28 0h1M3 9h1m40 0h1m2 6h1M0 32h1m2 6h1m40 0h1M9 44h1m28 0h1m-7 3h1" opacity=".004"/><path stroke="#fff" d="M16 0h1M0 16h1m46 15h1M31 47h1" opacity=".067"/><path stroke="#fff" d="M17 0h1m12 0h1M0 17h1m46 0h1M0 30h1m46 0h1M17 47h1m12 0h1" opacity=".137"/><path stroke="#fff" d="M18 0h1M0 29h1" opacity=".302"/><path stroke="#fff" d="M19 0h1M0 19h1m46 9h1M28 47h1" opacity=".522"/><path stroke="#fff" d="M20 0h1m26 20h1M0 27h1m26 20h1" opacity=".714"/><path stroke="#fff" d="M21 0h1m25 21h1M0 26h1m25 21h1" opacity=".847"/><path stroke="#fff" d="M22 0h1m24 22h1M0 25h1m24 22h1" opacity=".949"/><path stroke="#fff" d="M23 0h2M10 5h1m26 0h1M5 10h1m36 0h1M0 23h1m46 0h1M0 24h1m46 0h1M5 37h1m36 0h1m-33 5h1m26 0h1m-15 5h2" opacity=".996"/><path stroke="#fff" d="M25 0h1M0 22h1m46 3h1M22 47h1" opacity=".941"/><path stroke="#fff" d="M26 0h1M0 21h1m46 5h1M21 47h1" opacity=".855"/><path stroke="#fff" d="M27 0h1M0 20h1m46 7h1M20 47h1" opacity=".706"/><path stroke="#fff" d="M28 0h1m18 19h1M0 28h1m18 19h1" opacity=".525"/><path stroke="#fff" d="M29 0h1M0 18h1" opacity=".29"/><path stroke="#fff" d="M31 0h1m15 16h1M0 31h1m15 16h1" opacity=".063"/><path stroke="#fff" d="M32 0h1M7 5h1m32 0h1M5 7h1m36 0h1M0 15h1m46 17h1M5 40h1m36 0h1M7 42h1m32 0h1m-26 5h1" opacity=".008"/><path stroke="#fff" d="M13 1h1m20 0h1M1 13h1m44 0h1M1 34h1m44 0h1M13 46h1m20 0h1" opacity=".016"/><path stroke="#fff" d="M14 1h1m18 45h1" opacity=".208"/><path stroke="#fff" d="M15 1h1m30 14h1M1 32h1m30 14h1" opacity=".459"/><path stroke="#fff" d="M16 1h1m14 0h1M1 16h1m44 0h1M1 31h1m44 0h1M16 46h1m14 0h1" opacity=".694"/><path stroke="#fff" d="M17 1h1m12 0h1M1 17h1m44 13h1M17 46h1m12 0h1" opacity=".902"/><path stroke="#fff" d="M18 1h12M16 2h16M13 3h22M12 4h24M11 5h26M9 6h30M8 7h32M7 8h34M6 9h36M6 10h36M5 11h38M4 12h5m7 0h15m8 0h5M3 13h4m11 0h12m10 0h5M3 14h3m13 0h11m12 0h3M3 15h2m16 0h8m14 0h2M2 16h2m17 0h7m16 0h2M2 17h1m19 0h5m17 0h2M1 18h2m20 0h3m19 0h2M1 19h2m21 0h1m20 0h2M1 20h2m21 0h1m20 0h2M1 21h2m42 0h2M1 22h2m42 0h2M1 23h2m42 0h2M1 24h2m42 0h2M1 25h2m42 0h2M1 26h2m42 0h2M1 27h2m42 0h2M1 28h3m41 0h2M1 29h3m41 0h2M2 30h4m38 0h2M2 31h4m37 0h3M3 32h4m35 0h3M3 33h6m32 0h4M3 34h11m9 0h2m15 0h5M4 35h12m5 0h6m11 0h6M5 36h38M6 37h36M6 38h36M7 39h34M8 40h32M9 41h30m-28 1h26m-25 1h24m-23 1h22m-19 1h16m-14 1h12"/><path stroke="#fff" d="M32 1h1M1 15h1m44 17h1M15 46h1" opacity=".467"/><path stroke="#fff" d="M33 1h1M1 14h1m44 19h1M14 46h1" opacity=".2"/><path stroke="#fff" d="M12 2h1m32 10h1M2 35h1" opacity=".114"/><path stroke="#fff" d="M13 2h1m20 43h1" opacity=".604"/><path stroke="#fff" d="M14 2h1m18 0h1M2 14h1m42 0h1M2 33h1m42 0h1M14 45h1m18 0h1" opacity=".894"/><path stroke="#fff" d="M15 2h1m16 0h1M11 4h1m24 0h1M4 11h1m38 0h1M2 15h1m42 0h1M2 32h1m42 0h1M4 36h1m38 0h1m-33 7h1m24 0h1m-22 2h1m16 0h1" opacity=".98"/><path stroke="#fff" d="M34 2h1M13 45h1" opacity=".639"/><path stroke="#fff" d="M35 2h1m9 33h1" opacity=".141"/><path stroke="#fff" d="M10 3h1m-8 7h1m40 27h1m-8 7h1" opacity=".086"/><path stroke="#fff" d="M11 3h1m24 0h1M3 11h1m40 0h1M3 36h1m40 0h1m-34 8h1m24 0h1" opacity=".443"/><path stroke="#fff" d="M12 3h1M8 6h1m32 2h1m2 4h1M3 35h1m2 4h1m32 2h1m-5 3h1" opacity=".957"/><path stroke="#fff" d="M35 3h1M3 12h1m40 23h1m-33 9h1" opacity=".945"/><path stroke="#fff" d="M37 3h1m6 7h1M3 37h1m6 7h1" opacity=".082"/><path stroke="#fff" d="M9 4h1m33 5h1M4 38h1m33 5h1" opacity=".243"/><path stroke="#fff" d="M10 4h1m32 6h1M4 37h1m32 6h1" opacity=".725"/><path stroke="#fff" d="M37 4h1M4 10h1m38 27h1m-34 6h1" opacity=".722"/><path stroke="#fff" d="M38 4h1m4 34h1M9 43h1" opacity=".247"/><path stroke="#fff" d="M8 5h1m33 3h1M5 39h1m33 3h1" opacity=".388"/><path stroke="#fff" d="M9 5h1m28 0h1M5 9h1m36 0h1M5 38h1m36 0h1M9 42h1m28 0h1" opacity=".91"/><path stroke="#fff" d="M39 5h1M5 8h1m36 31h1M8 42h1" opacity=".38"/><path stroke="#fff" d="M6 6h1m34 0h1M6 41h1m34 0h1" opacity=".027"/><path stroke="#fff" d="M7 6h1m32 35h1" opacity=".447"/><path stroke="#fff" d="M39 6h1M6 8h1m34 31h1M8 41h1" opacity=".961"/><path stroke="#fff" d="M40 6h1M6 7h1m34 33h1M7 41h1" opacity=".455"/><path stroke="#fff" d="M7 7h1m32 0h1M7 40h1m32 0h1" opacity=".929"/><path stroke="#fff" d="M41 7h1M6 40h1" opacity=".451"/><path stroke="#fff" d="M4 9h1" opacity=".251"/><path stroke="#fff" d="M2 12h1m9 33h1" opacity=".145"/><path stroke="#fdfefe" d="M9 12h1m29 22h1m-24 1h1"/><path stroke="#f3f6f7" d="M10 12h1m33 6h1m-9 17h1"/><path stroke="#eaeff1" d="M11 12h1m1 0h1m29 18h1"/><path stroke="#e8edf0" d="M12 12h1m-8 3h1"/><path stroke="#f1f4f6" d="M14 12h1"/><path stroke="#fbfcfd" d="M15 12h1"/><path stroke="#f7f9fa" d="M31 12h1m-9 7h1"/><path stroke="#e9eef1" d="M32 12h1m-23 9h1M8 32h1m26 3h1"/><path stroke="#e0e8eb" d="M33 12h1"/><path stroke="#dde6e9" d="M34 12h1m-3 23h1"/><path stroke="#e0e7eb" d="M35 12h1"/><path stroke="#e7edf0" d="M36 12h1m2 1h1"/><path stroke="#f4f6f8" d="M37 12h1"/><path stroke="#fefefe" d="M38 12h1M9 33h1"/><path stroke="#fff" d="M2 13h1m42 21h1" opacity=".643"/><path stroke="#fcfcfd" d="M7 13h1m4 20h1"/><path stroke="#d4dee3" d="M8 13h1m29 21h1"/><path stroke="#9fb7c1" d="M9 13h1"/><path stroke="#7697a6" d="M10 13h1"/><path stroke="#5d8496" d="M11 13h1"/><path stroke="#557f91" d="M12 13h1"/><path stroke="#5b8395" d="M13 13h1"/><path stroke="#7093a2" d="M14 13h1m2 1h1M6 15h1"/><path stroke="#94aeb9" d="M15 13h1"/><path stroke="#c8d5db" d="M16 13h1"/><path stroke="#fafbfc" d="M17 13h1m24 2h1m0 1h1M6 31h1m18 3h1"/><path stroke="#cedadf" d="M30 13h1M4 28h1"/><path stroke="#86a4b1" d="M31 13h1"/><path stroke="#598193" d="M32 13h1m-12 5h1m13 16h1"/><path stroke="#437185" d="M33 13h1m-22 8h1"/><path stroke="#37677d" d="M34 13h1M16 25h1"/><path stroke="#3d6d82" d="M35 13h1"/><path stroke="#547e90" d="M36 13h1"/><path stroke="#7899a8" d="M37 13h1"/><path stroke="#abbfc9" d="M38 13h1"/><path stroke="#fff" d="M45 13h1M2 34h1" opacity=".6"/><path stroke="#f6f8f9" d="M6 14h1m21 21h1"/><path stroke="#96b0bb" d="M7 14h1M3 25h1"/><path stroke="#4c788b" d="M8 14h1m21 20h1"/><path stroke="#396a7f" d="M9 14h1m10 15h1m12 0h1"/><path stroke="#36677d" d="M10 14h5m22 0h1M7 15h11m21 0h1M6 16h13m21 0h1M6 17h14m20 0h2M5 18h16m20 0h2M4 19h17m21 0h1M4 20h18m20 0h2M4 21h3m6 0h10m19 0h2M4 22h2m8 0h10m18 0h2M4 23h2m9 0h9m18 0h2M4 24h2m10 0h9m17 0h2M4 25h2m11 0h9m16 0h2M5 26h1m11 0h10m14 0h3m-26 1h11m11 0h3M6 28h1m13 0h10m9 0h4m-22 1h12m4 0h5m-20 1h20m-18 1h17m-16 1h15m-12 1h9m-5 1h1"/><path stroke="#37687e" d="M15 14h1M3 22h1m40 1h1m-30 1h1M5 27h1m13 1h1"/><path stroke="#457287" d="M16 14h1"/><path stroke="#e5ebee" d="M18 14h1m11 21h1"/><path stroke="#9db4bf" d="M30 14h1"/><path stroke="#b4c7ce" d="M31 14h1"/><path stroke="#d7e1e5" d="M32 14h1"/><path stroke="#dde5e9" d="M33 14h1"/><path stroke="#c8d6db" d="M34 14h1m9 13h1"/><path stroke="#94aeba" d="M35 14h1"/><path stroke="#477488" d="M36 14h1m-17 3h1m20 3h1M6 26h1m22 1h1m9 0h1"/><path stroke="#3d6c81" d="M38 14h1m-8 20h1"/><path stroke="#598294" d="M39 14h1"/><path stroke="#c0cfd6" d="M40 14h1"/><path stroke="#fcfdfd" d="M41 14h1m-22 1h1M4 29h1m39 0h1"/><path stroke="#fff" d="M46 14h1M1 33h1" opacity=".204"/><path stroke="#4a768a" d="M18 15h1M6 23h1m33 3h1M5 28h1"/><path stroke="#c1d0d6" d="M19 15h1"/><path stroke="#f9fafa" d="M29 15h1"/><path stroke="#d8dee2" d="M30 15h1"/><path stroke="#8799a3" d="M31 15h1m-7 6h1"/><path stroke="#466271" d="M32 15h1"/><path stroke="#325162" d="M33 15h1m4 5h1M9 28h1"/><path stroke="#496574" d="M34 15h1M21 32h1"/><path stroke="#8a9ca5" d="M35 15h1"/><path stroke="#ccd5d9" d="M36 15h1"/><path stroke="#809eac" d="M37 15h1"/><path stroke="#3f6e83" d="M38 15h1m-5 14h1"/><path stroke="#406f84" d="M40 15h1M3 23h1"/><path stroke="#b0c3cb" d="M41 15h1"/><path stroke="#e2e9ec" d="M4 16h1m19 17h1m9 2h1"/><path stroke="#668b9c" d="M5 16h1"/><path stroke="#4f7a8d" d="M19 16h1"/><path stroke="#beced5" d="M20 16h1"/><path stroke="#eaedef" d="M28 16h1"/><path stroke="#8e9fa8" d="M29 16h1M17 31h1"/><path stroke="#3a5868" d="M30 16h1m5 0h1M8 26h1"/><path stroke="#264759" d="M31 16h5m-6 1h7m-8 1h9m-10 1h4m6 0h1m-12 1h3m-3 1h1M9 27h1m2 3h1m-1 1h2m0 1h4m-1 1h3"/><path stroke="#92a3ac" d="M37 16h1"/><path stroke="#9eb5bf" d="M38 16h1"/><path stroke="#3c6c81" d="M39 16h1"/><path stroke="#3a6a7f" d="M41 16h1m-21 3h1m4 6h1M6 27h1m36 0h1"/><path stroke="#a5bac4" d="M42 16h1"/><path stroke="#f9fbfb" d="M3 17h1"/><path stroke="#91acb8" d="M4 17h1"/><path stroke="#38697f" d="M5 17h1m19 7h1"/><path stroke="#d8e1e5" d="M21 17h1"/><path stroke="#f1f4f5" d="M27 17h1"/><path stroke="#768b96" d="M28 17h1"/><path stroke="#2b4b5d" d="M29 17h1M11 29h1"/><path stroke="#2f4f60" d="M37 17h1"/><path stroke="#98a7b0" d="M38 17h1"/><path stroke="#9ab2bd" d="M39 17h1"/><path stroke="#467387" d="M42 17h1M7 30h1m13 0h1"/><path stroke="#c3d1d8" d="M43 17h1"/><path stroke="#fff" d="M46 17h1M1 30h1" opacity=".906"/><path stroke="#dfe7ea" d="M3 18h1"/><path stroke="#4b778a" d="M4 18h1m21 15h1"/><path stroke="#e9eef0" d="M22 18h1"/><path stroke="#fbfcfc" d="M26 18h1"/><path stroke="#91a2aa" d="M27 18h1"/><path stroke="#27485a" d="M28 18h1m-3 3h1m-17 8h1m3 2h1m5 2h1"/><path stroke="#28495a" d="M38 18h1"/><path stroke="#bbc7cd" d="M39 18h1M8 28h1"/><path stroke="#628899" d="M40 18h1"/><path stroke="#7798a7" d="M43 18h1"/><path stroke="#fff" d="M47 18h1M29 47h1" opacity=".298"/><path stroke="#a2b9c3" d="M3 19h1"/><path stroke="#8eaab6" d="M22 19h1"/><path stroke="#fdfdfd" d="M25 19h1m-6 16h1"/><path stroke="#acb9bf" d="M26 19h1"/><path stroke="#2a4a5c" d="M27 19h1"/><path stroke="#315161" d="M32 19h1"/><path stroke="#5a7381" d="M33 19h1"/><path stroke="#6c828e" d="M34 19h1"/><path stroke="#667d8a" d="M35 19h1"/><path stroke="#486473" d="M36 19h1"/><path stroke="#28495b" d="M37 19h1"/><path stroke="#5b7481" d="M39 19h1"/><path stroke="#97afba" d="M40 19h1"/><path stroke="#3b6b80" d="M41 19h1M6 22h1m29 7h1m5 0h1"/><path stroke="#427085" d="M43 19h1m-6 9h1"/><path stroke="#d3dee2" d="M44 19h1"/><path stroke="#688d9d" d="M3 20h1"/><path stroke="#416f84" d="M22 20h1"/><path stroke="#c5d3d9" d="M23 20h1"/><path stroke="#cdd4d8" d="M25 20h1"/><path stroke="#405d6d" d="M26 20h1"/><path stroke="#2d4d5e" d="M30 20h1m-3 1h1"/><path stroke="#7c909b" d="M31 20h1"/><path stroke="#d5dad9" d="M32 20h1"/><path stroke="#e2dabf" d="M33 20h1"/><path stroke="#e3d3a8" d="M34 20h1"/><path stroke="#e1d1a6" d="M35 20h1"/><path stroke="#dcd6bf" d="M36 20h1"/><path stroke="#9facb1" d="M37 20h1"/><path stroke="#385767" d="M39 20h1"/><path stroke="#99adb7" d="M40 20h1"/><path stroke="#97b0bc" d="M44 20h1"/><path stroke="#437186" d="M3 21h1m40 3h1"/><path stroke="#467388" d="M7 21h1m33 3h1"/><path stroke="#a1b7c1" d="M8 21h1"/><path stroke="#dae1e4" d="M9 21h1"/><path stroke="#8ba7b4" d="M11 21h1m32 5h1"/><path stroke="#497589" d="M23 21h1"/><path stroke="#e0e8ea" d="M24 21h1"/><path stroke="#4e6977" d="M29 21h1"/><path stroke="#c1c7c3" d="M30 21h1"/><path stroke="#f1e4c3" d="M31 21h1"/><path stroke="#e5c67c" d="M32 21h1"/><path stroke="#e2c06b" d="M33 21h2m-3 1h2m-4 1h3m-4 1h2"/><path stroke="#e3c16e" d="M35 21h1m-5 3h1m-17 5h1"/><path stroke="#e8cd8a" d="M36 21h1"/><path stroke="#f4f0e1" d="M37 21h1"/><path stroke="#c6cfd4" d="M38 21h1"/><path stroke="#3b5969" d="M39 21h1m-14 1h1"/><path stroke="#93a6af" d="M40 21h1"/><path stroke="#507b8e" d="M41 21h1M6 25h1"/><path stroke="#5e8596" d="M44 21h1"/><path stroke="#92acb7" d="M7 22h1"/><path stroke="#8698a3" d="M8 22h1"/><path stroke="#677e8b" d="M9 22h1"/><path stroke="#ecf3f6" d="M10 22h1"/><path stroke="#e1edf1" d="M11 22h1"/><path stroke="#b8c9d1" d="M12 22h1"/><path stroke="#4e798d" d="M13 22h1"/><path stroke="#698d9e" d="M24 22h1"/><path stroke="#a9b9c0" d="M25 22h1"/><path stroke="#3d5a6a" d="M27 22h1"/><path stroke="#95a4aa" d="M28 22h1"/><path stroke="#e3dabe" d="M29 22h1"/><path stroke="#e9cf8e" d="M30 22h1"/><path stroke="#e2c16d" d="M31 22h1"/><path stroke="#e5c77c" d="M34 22h1"/><path stroke="#eddeb4" d="M35 22h1"/><path stroke="#dae4e0" d="M36 22h1"/><path stroke="#bbd6e0" d="M37 22h1"/><path stroke="#c9dfe6" d="M38 22h1"/><path stroke="#a8b5bc" d="M39 22h1"/><path stroke="#94a6af" d="M40 22h1"/><path stroke="#537d90" d="M41 22h1"/><path stroke="#426f84" d="M44 22h1"/><path stroke="#9fb2bb" d="M7 23h1"/><path stroke="#395767" d="M8 23h1"/><path stroke="#748a95" d="M9 23h1"/><path stroke="#cde1e8" d="M10 23h1"/><path stroke="#9cc4d2" d="M11 23h1"/><path stroke="#cce0e7" d="M12 23h1"/><path stroke="#a7bdc6" d="M13 23h1"/><path stroke="#3e6d82" d="M14 23h1"/><path stroke="#39697f" d="M24 23h1m16 2h1M7 29h1m15 2h1m9 3h1"/><path stroke="#84a2af" d="M25 23h1m-7 6h1"/><path stroke="#c9d2d7" d="M26 23h1"/><path stroke="#d7dbd9" d="M27 23h1"/><path stroke="#e8d6a6" d="M28 23h1"/><path stroke="#e4c474" d="M29 23h1"/><path stroke="#e6cb84" d="M33 23h1"/><path stroke="#ece9d6" d="M34 23h1"/><path stroke="#b7d3db" d="M35 23h1"/><path stroke="#9bc3d1" d="M36 23h1"/><path stroke="#94bfce" d="M37 23h1m-3 1h4m-5 1h5m-6 1h5"/><path stroke="#97c1cf" d="M38 23h1"/><path stroke="#e3edf0" d="M39 23h1"/><path stroke="#dce4e7" d="M40 23h1"/><path stroke="#517c8f" d="M41 23h1M6 24h1"/><path stroke="#63889a" d="M3 24h1"/><path stroke="#98aab2" d="M7 24h1"/><path stroke="#2e4e5f" d="M8 24h1m4 8h1"/><path stroke="#6d838f" d="M9 24h1"/><path stroke="#deecf0" d="M10 24h1"/><path stroke="#a2c8d4" d="M11 24h1m20 2h1"/><path stroke="#9cc4d1" d="M12 24h1"/><path stroke="#d6e5ea" d="M13 24h1"/><path stroke="#7c9caa" d="M14 24h1"/><path stroke="#a0b7c1" d="M26 24h1"/><path stroke="#f3f0e4" d="M27 24h1"/><path stroke="#e4c679" d="M28 24h1"/><path stroke="#e9d091" d="M32 24h1"/><path stroke="#eaefe9" d="M33 24h1"/><path stroke="#adced9" d="M34 24h1"/><path stroke="#cce1e7" d="M39 24h1"/><path stroke="#cbd8dd" d="M40 24h1"/><path stroke="#99aab3" d="M7 25h1"/><path stroke="#304f60" d="M8 25h1"/><path stroke="#4b6775" d="M9 25h1"/><path stroke="#eff0ee" d="M10 25h1"/><path stroke="#e3e8de" d="M11 25h1"/><path stroke="#b6d4dd" d="M12 25h1"/><path stroke="#abcdd8" d="M13 25h1"/><path stroke="#dbe6ea" d="M14 25h1"/><path stroke="#7395a4" d="M15 25h1"/><path stroke="#93acb7" d="M27 25h1"/><path stroke="#e6dfc5" d="M28 25h1"/><path stroke="#e7cb86" d="M29 25h1"/><path stroke="#e3c16f" d="M30 25h1"/><path stroke="#ecd7a3" d="M31 25h1"/><path stroke="#e0e9e5" d="M32 25h1"/><path stroke="#a9ccd7" d="M33 25h1"/><path stroke="#cee1e7" d="M39 25h1"/><path stroke="#93adb9" d="M40 25h1"/><path stroke="#608798" d="M44 25h1"/><path stroke="#d6e0e5" d="M3 26h1m38 5h1m-17 3h1"/><path stroke="#427084" d="M4 26h1"/><path stroke="#9db0b9" d="M7 26h1"/><path stroke="#355465" d="M9 26h1m5 7h1"/><path stroke="#c0c9cc" d="M10 26h1"/><path stroke="#ecd6a1" d="M11 26h1"/><path stroke="#ece4c8" d="M12 26h1"/><path stroke="#cee2e8" d="M13 26h1"/><path stroke="#b0d0da" d="M14 26h1"/><path stroke="#dce6ea" d="M15 26h1"/><path stroke="#658a9b" d="M16 26h1"/><path stroke="#3b6a80" d="M27 26h1M8 30h1"/><path stroke="#7495a3" d="M28 26h1"/><path stroke="#e6e8e1" d="M29 26h1"/><path stroke="#f5eacd" d="M30 26h1"/><path stroke="#e2eae7" d="M31 26h1"/><path stroke="#a9cbd7" d="M38 26h1"/><path stroke="#ccd9df" d="M39 26h1"/><path stroke="#f4f7f8" d="M3 27h1"/><path stroke="#7e9eac" d="M4 27h1"/><path stroke="#9cb3be" d="M7 27h1"/><path stroke="#5f7885" d="M8 27h1"/><path stroke="#6b828e" d="M10 27h1"/><path stroke="#eae8dc" d="M11 27h1"/><path stroke="#e5c87e" d="M12 27h1"/><path stroke="#eedbab" d="M13 27h1"/><path stroke="#f4f1e4" d="M14 27h1"/><path stroke="#f9f7ef" d="M15 27h1"/><path stroke="#d4dedf" d="M16 27h1"/><path stroke="#5a8294" d="M17 27h1"/><path stroke="#aec1ca" d="M30 27h1"/><path stroke="#d9e5e9" d="M31 27h1"/><path stroke="#b4d1db" d="M32 27h1"/><path stroke="#a4c9d5" d="M33 27h1"/><path stroke="#a1c7d4" d="M34 27h2"/><path stroke="#a5c9d6" d="M36 27h1"/><path stroke="#bcd5de" d="M37 27h1"/><path stroke="#c5d5db" d="M38 27h1"/><path stroke="#63899a" d="M7 28h1m21 6h1"/><path stroke="#2c4c5d" d="M10 28h1"/><path stroke="#8698a2" d="M11 28h1"/><path stroke="#ece5d0" d="M12 28h1"/><path stroke="#e7cc87" d="M13 28h1"/><path stroke="#e5c67a" d="M14 28h1"/><path stroke="#e8ce8c" d="M15 28h1"/><path stroke="#f1e1b8" d="M16 28h1"/><path stroke="#dae1e0" d="M17 28h1"/><path stroke="#7294a4" d="M18 28h1"/><path stroke="#38697e" d="M30 28h1"/><path stroke="#578092" d="M31 28h1"/><path stroke="#85a3b0" d="M32 28h1"/><path stroke="#9fb8c2" d="M33 28h1"/><path stroke="#a7bfc9" d="M34 28h1"/><path stroke="#a9c1ca" d="M35 28h1"/><path stroke="#a2bac4" d="M36 28h1"/><path stroke="#7f9eac" d="M37 28h1"/><path stroke="#608698" d="M43 28h1"/><path stroke="#ebf0f2" d="M44 28h1"/><path stroke="#b9cad2" d="M5 29h1"/><path stroke="#38687e" d="M6 29h1"/><path stroke="#9eb5c0" d="M8 29h1"/><path stroke="#9dacb4" d="M9 29h1"/><path stroke="#708590" d="M12 29h1"/><path stroke="#e3e2d6" d="M13 29h1"/><path stroke="#eed9a7" d="M14 29h1"/><path stroke="#e3c271" d="M16 29h1"/><path stroke="#ecd69f" d="M17 29h1"/><path stroke="#ebefef" d="M18 29h1"/><path stroke="#406f83" d="M35 29h1"/><path stroke="#a1b8c2" d="M43 29h1"/><path stroke="#fff" d="M47 29h1M18 47h1" opacity=".286"/><path stroke="#b4c6cf" d="M6 30h1"/><path stroke="#bbcbd1" d="M9 30h1"/><path stroke="#718692" d="M10 30h1"/><path stroke="#29495b" d="M11 30h1m6 2h1m-3 1h1"/><path stroke="#496573" d="M13 30h1"/><path stroke="#b5c1c7" d="M14 30h1"/><path stroke="#e4e6e2" d="M15 30h1"/><path stroke="#ece4ce" d="M16 30h1"/><path stroke="#f0e1bb" d="M17 30h1"/><path stroke="#f8f0dc" d="M18 30h1"/><path stroke="#f8fafa" d="M19 30h1"/><path stroke="#98b1bc" d="M20 30h1"/><path stroke="#618899" d="M42 30h1"/><path stroke="#bcccd3" d="M7 31h1"/><path stroke="#5b8394" d="M8 31h1"/><path stroke="#527c8f" d="M9 31h1"/><path stroke="#afc0c8" d="M10 31h1"/><path stroke="#6e8490" d="M11 31h1"/><path stroke="#4a6574" d="M15 31h1"/><path stroke="#748994" d="M16 31h1"/><path stroke="#9aaab2" d="M18 31h1"/><path stroke="#a0aeb6" d="M19 31h1"/><path stroke="#a2b1b8" d="M20 31h1"/><path stroke="#a8bac3" d="M21 31h1"/><path stroke="#698e9e" d="M22 31h1"/><path stroke="#5d8596" d="M41 31h1"/><path stroke="#fdfdfe" d="M7 32h1m29 3h1"/><path stroke="#98b1bd" d="M9 32h1"/><path stroke="#668b9b" d="M10 32h1"/><path stroke="#d9e1e5" d="M11 32h1"/><path stroke="#95a5ad" d="M12 32h1"/><path stroke="#2b4b5c" d="M19 32h1"/><path stroke="#2b4c5d" d="M20 32h1"/><path stroke="#aebcc2" d="M22 32h1"/><path stroke="#97b0bb" d="M23 32h1"/><path stroke="#3a6a80" d="M24 32h1m12 1h1"/><path stroke="#658b9b" d="M40 32h1"/><path stroke="#dee6e9" d="M41 32h1"/><path stroke="#eff3f4" d="M10 33h1"/><path stroke="#fafcfc" d="M11 33h1"/><path stroke="#c4ccd1" d="M13 33h1"/><path stroke="#597280" d="M14 33h1"/><path stroke="#355464" d="M21 33h1"/><path stroke="#8fa0aa" d="M22 33h1"/><path stroke="#f9fafb" d="M23 33h1"/><path stroke="#7d9cab" d="M25 33h1"/><path stroke="#3c6b81" d="M27 33h1"/><path stroke="#49768a" d="M38 33h1"/><path stroke="#89a5b3" d="M39 33h1"/><path stroke="#edf1f3" d="M40 33h1"/><path stroke="#f6f8f8" d="M14 34h1m2 1h1"/><path stroke="#bfc9cf" d="M15 34h1"/><path stroke="#95a5ae" d="M16 34h1"/><path stroke="#798d98" d="M17 34h1"/><path stroke="#6e8390" d="M18 34h1"/><path stroke="#758a96" d="M19 34h1"/><path stroke="#8e9fa9" d="M20 34h1"/><path stroke="#bfc9ce" d="M21 34h1"/><path stroke="#f2f4f5" d="M22 34h1"/><path stroke="#a9bec7" d="M27 34h1"/><path stroke="#809fad" d="M28 34h1"/><path stroke="#447186" d="M34 34h1"/><path stroke="#7698a7" d="M36 34h1"/><path stroke="#a0b8c2" d="M37 34h1"/><path stroke="#f3f4f6" d="M18 35h1"/><path stroke="#f5f7f7" d="M19 35h1"/><path stroke="#fefeff" d="M27 35h1"/><path stroke="#ecf1f3" d="M29 35h1"/><path stroke="#dfe7eb" d="M31 35h1"/><path stroke="#dee6ea" d="M33 35h1"/><path stroke="#fff" d="M35 45h1" opacity=".11"/></svg>